<mxfile host="app.diagrams.net" agent="Mozilla/5.0 (Windows NT 10.0; Win64; x64; rv:139.0) Gecko/20100101 Firefox/139.0" version="27.1.5">
  <diagram name="Страница — 1" id="lOXgt-aCseuYetRpwDvi">
    <mxGraphModel dx="1042" dy="1711" grid="1" gridSize="10" guides="1" tooltips="1" connect="1" arrows="1" fold="1" page="1" pageScale="1" pageWidth="827" pageHeight="1169" math="0" shadow="0">
      <root>
        <mxCell id="0" />
        <mxCell id="1" parent="0" />
        <mxCell id="n_jryro7lZSGbbbVeQId-4" style="edgeStyle=orthogonalEdgeStyle;rounded=0;orthogonalLoop=1;jettySize=auto;html=1;exitX=1;exitY=0.5;exitDx=0;exitDy=0;entryX=0;entryY=0.5;entryDx=0;entryDy=0;" parent="1" source="hqro3P3JsnMgNJcTQGFR-3" edge="1" target="hqro3P3JsnMgNJcTQGFR-2">
          <mxGeometry relative="1" as="geometry">
            <mxPoint x="540" y="390" as="targetPoint" />
          </mxGeometry>
        </mxCell>
        <mxCell id="e9nB6p_WT3sDQEHfiV55-23" style="edgeStyle=orthogonalEdgeStyle;rounded=0;orthogonalLoop=1;jettySize=auto;html=1;exitX=0;exitY=0.75;exitDx=0;exitDy=0;entryX=1;entryY=0.25;entryDx=0;entryDy=0;" parent="1" source="hqro3P3JsnMgNJcTQGFR-1" target="e9nB6p_WT3sDQEHfiV55-22" edge="1">
          <mxGeometry relative="1" as="geometry">
            <Array as="points">
              <mxPoint x="170" y="105" />
              <mxPoint x="170" y="135" />
            </Array>
          </mxGeometry>
        </mxCell>
        <mxCell id="hqro3P3JsnMgNJcTQGFR-1" value="Data Path" style="rounded=0;whiteSpace=wrap;html=1;" parent="1" vertex="1">
          <mxGeometry x="220" y="30" width="220" height="100" as="geometry" />
        </mxCell>
        <mxCell id="hqro3P3JsnMgNJcTQGFR-24" style="edgeStyle=orthogonalEdgeStyle;rounded=0;orthogonalLoop=1;jettySize=auto;html=1;exitX=0;exitY=0.25;exitDx=0;exitDy=0;entryX=1;entryY=0.5;entryDx=0;entryDy=0;" parent="1" source="hqro3P3JsnMgNJcTQGFR-2" target="hqro3P3JsnMgNJcTQGFR-4" edge="1">
          <mxGeometry relative="1" as="geometry" />
        </mxCell>
        <mxCell id="hqro3P3JsnMgNJcTQGFR-31" value="instr" style="edgeLabel;html=1;align=center;verticalAlign=middle;resizable=0;points=[];" parent="hqro3P3JsnMgNJcTQGFR-24" vertex="1" connectable="0">
          <mxGeometry x="-0.0125" relative="1" as="geometry">
            <mxPoint x="-5" y="-16" as="offset" />
          </mxGeometry>
        </mxCell>
        <mxCell id="ijN6u9asBKh3APsqhych-20" style="edgeStyle=orthogonalEdgeStyle;rounded=0;orthogonalLoop=1;jettySize=auto;html=1;exitX=0;exitY=0.25;exitDx=0;exitDy=0;entryX=1;entryY=0.75;entryDx=0;entryDy=0;" edge="1" parent="1" source="hqro3P3JsnMgNJcTQGFR-2" target="ijN6u9asBKh3APsqhych-18">
          <mxGeometry relative="1" as="geometry">
            <Array as="points">
              <mxPoint x="530" y="300" />
              <mxPoint x="530" y="190" />
              <mxPoint x="820" y="190" />
              <mxPoint x="820" y="90" />
            </Array>
          </mxGeometry>
        </mxCell>
        <mxCell id="hqro3P3JsnMgNJcTQGFR-2" value="Memory" style="rounded=0;whiteSpace=wrap;html=1;" parent="1" vertex="1">
          <mxGeometry x="550" y="210" width="250" height="360" as="geometry" />
        </mxCell>
        <mxCell id="hqro3P3JsnMgNJcTQGFR-14" style="edgeStyle=orthogonalEdgeStyle;rounded=0;orthogonalLoop=1;jettySize=auto;html=1;exitX=1;exitY=0.5;exitDx=0;exitDy=0;entryX=0.5;entryY=0;entryDx=0;entryDy=0;" parent="1" source="hqro3P3JsnMgNJcTQGFR-3" target="hqro3P3JsnMgNJcTQGFR-13" edge="1">
          <mxGeometry relative="1" as="geometry" />
        </mxCell>
        <mxCell id="e9nB6p_WT3sDQEHfiV55-61" style="edgeStyle=orthogonalEdgeStyle;rounded=0;orthogonalLoop=1;jettySize=auto;html=1;exitX=1;exitY=0.5;exitDx=0;exitDy=0;entryX=0;entryY=0.5;entryDx=0;entryDy=0;jumpStyle=arc;" parent="1" source="hqro3P3JsnMgNJcTQGFR-3" target="e9nB6p_WT3sDQEHfiV55-58" edge="1">
          <mxGeometry relative="1" as="geometry">
            <Array as="points">
              <mxPoint x="470" y="390" />
              <mxPoint x="470" y="115" />
            </Array>
          </mxGeometry>
        </mxCell>
        <mxCell id="n_jryro7lZSGbbbVeQId-5" style="edgeStyle=orthogonalEdgeStyle;rounded=0;orthogonalLoop=1;jettySize=auto;html=1;exitX=1;exitY=0.5;exitDx=0;exitDy=0;entryX=0.25;entryY=1;entryDx=0;entryDy=0;" parent="1" source="hqro3P3JsnMgNJcTQGFR-3" target="e9nB6p_WT3sDQEHfiV55-2" edge="1">
          <mxGeometry relative="1" as="geometry">
            <Array as="points">
              <mxPoint x="300" y="390" />
              <mxPoint x="300" y="360" />
              <mxPoint x="170" y="360" />
              <mxPoint x="170" y="220" />
              <mxPoint x="245" y="220" />
            </Array>
          </mxGeometry>
        </mxCell>
        <mxCell id="hqro3P3JsnMgNJcTQGFR-3" value="PC" style="rounded=0;whiteSpace=wrap;html=1;" parent="1" vertex="1">
          <mxGeometry x="250" y="370" width="40" height="40" as="geometry" />
        </mxCell>
        <mxCell id="hqro3P3JsnMgNJcTQGFR-33" style="edgeStyle=orthogonalEdgeStyle;rounded=0;orthogonalLoop=1;jettySize=auto;html=1;exitX=0.75;exitY=0;exitDx=0;exitDy=0;entryX=0.75;entryY=1;entryDx=0;entryDy=0;dashed=1;" parent="1" source="hqro3P3JsnMgNJcTQGFR-4" target="hqro3P3JsnMgNJcTQGFR-1" edge="1">
          <mxGeometry relative="1" as="geometry" />
        </mxCell>
        <mxCell id="hqro3P3JsnMgNJcTQGFR-40" value="signals" style="edgeLabel;html=1;align=center;verticalAlign=middle;resizable=0;points=[];" parent="hqro3P3JsnMgNJcTQGFR-33" vertex="1" connectable="0">
          <mxGeometry x="-0.05" y="-2" relative="1" as="geometry">
            <mxPoint x="-2" y="-1" as="offset" />
          </mxGeometry>
        </mxCell>
        <mxCell id="e9nB6p_WT3sDQEHfiV55-8" style="edgeStyle=orthogonalEdgeStyle;rounded=0;orthogonalLoop=1;jettySize=auto;html=1;exitX=0.25;exitY=0;exitDx=0;exitDy=0;entryX=0.75;entryY=1;entryDx=0;entryDy=0;" parent="1" source="hqro3P3JsnMgNJcTQGFR-4" target="e9nB6p_WT3sDQEHfiV55-2" edge="1">
          <mxGeometry relative="1" as="geometry" />
        </mxCell>
        <mxCell id="hqro3P3JsnMgNJcTQGFR-4" value="Instruction Decoder" style="rounded=0;whiteSpace=wrap;html=1;" parent="1" vertex="1">
          <mxGeometry x="220" y="240" width="220" height="100" as="geometry" />
        </mxCell>
        <mxCell id="hqro3P3JsnMgNJcTQGFR-5" value="Interrupt Handler" style="rounded=0;whiteSpace=wrap;html=1;" parent="1" vertex="1">
          <mxGeometry x="540" y="30" width="250" height="100" as="geometry" />
        </mxCell>
        <mxCell id="hqro3P3JsnMgNJcTQGFR-6" value="IRQ" style="rounded=0;whiteSpace=wrap;html=1;" parent="1" vertex="1">
          <mxGeometry x="540" y="30" width="60" height="30" as="geometry" />
        </mxCell>
        <mxCell id="hqro3P3JsnMgNJcTQGFR-9" value="IE" style="rounded=0;whiteSpace=wrap;html=1;" parent="1" vertex="1">
          <mxGeometry x="600" y="30" width="30" height="30" as="geometry" />
        </mxCell>
        <mxCell id="e9nB6p_WT3sDQEHfiV55-56" style="edgeStyle=orthogonalEdgeStyle;rounded=0;orthogonalLoop=1;jettySize=auto;html=1;exitX=0.5;exitY=1;exitDx=0;exitDy=0;entryX=0.75;entryY=1;entryDx=0;entryDy=0;" parent="1" source="hqro3P3JsnMgNJcTQGFR-13" target="e9nB6p_WT3sDQEHfiV55-36" edge="1">
          <mxGeometry relative="1" as="geometry" />
        </mxCell>
        <mxCell id="hqro3P3JsnMgNJcTQGFR-13" value="+4" style="rounded=0;whiteSpace=wrap;html=1;" parent="1" vertex="1">
          <mxGeometry x="370" y="440" width="30" height="30" as="geometry" />
        </mxCell>
        <mxCell id="hqro3P3JsnMgNJcTQGFR-19" value="IR" style="rounded=0;whiteSpace=wrap;html=1;" parent="1" vertex="1">
          <mxGeometry x="410" y="275" width="30" height="30" as="geometry" />
        </mxCell>
        <mxCell id="hqro3P3JsnMgNJcTQGFR-25" value="R1" style="rounded=0;whiteSpace=wrap;html=1;" parent="1" vertex="1">
          <mxGeometry x="285" y="310" width="30" height="30" as="geometry" />
        </mxCell>
        <mxCell id="hqro3P3JsnMgNJcTQGFR-26" value="R2" style="rounded=0;whiteSpace=wrap;html=1;" parent="1" vertex="1">
          <mxGeometry x="315" y="310" width="30" height="30" as="geometry" />
        </mxCell>
        <mxCell id="hqro3P3JsnMgNJcTQGFR-27" value="R3" style="rounded=0;whiteSpace=wrap;html=1;" parent="1" vertex="1">
          <mxGeometry x="345" y="310" width="30" height="30" as="geometry" />
        </mxCell>
        <mxCell id="hqro3P3JsnMgNJcTQGFR-43" value="" style="endArrow=classic;html=1;rounded=0;dashed=1;" parent="1" edge="1">
          <mxGeometry width="50" height="50" relative="1" as="geometry">
            <mxPoint x="190" y="390" as="sourcePoint" />
            <mxPoint x="250" y="389.5" as="targetPoint" />
          </mxGeometry>
        </mxCell>
        <mxCell id="hqro3P3JsnMgNJcTQGFR-44" value="latch_pc" style="edgeLabel;html=1;align=center;verticalAlign=middle;resizable=0;points=[];" parent="hqro3P3JsnMgNJcTQGFR-43" vertex="1" connectable="0">
          <mxGeometry x="-0.0555" y="-1" relative="1" as="geometry">
            <mxPoint x="-4" y="-11" as="offset" />
          </mxGeometry>
        </mxCell>
        <mxCell id="hqro3P3JsnMgNJcTQGFR-45" value="" style="endArrow=classic;html=1;rounded=0;dashed=1;" parent="1" edge="1">
          <mxGeometry width="50" height="50" relative="1" as="geometry">
            <mxPoint x="165.5" y="454.5" as="sourcePoint" />
            <mxPoint x="220" y="454.5" as="targetPoint" />
          </mxGeometry>
        </mxCell>
        <mxCell id="hqro3P3JsnMgNJcTQGFR-46" value="sel_pc" style="edgeLabel;html=1;align=center;verticalAlign=middle;resizable=0;points=[];" parent="hqro3P3JsnMgNJcTQGFR-45" vertex="1" connectable="0">
          <mxGeometry x="-0.0555" y="-1" relative="1" as="geometry">
            <mxPoint x="-1" y="-12" as="offset" />
          </mxGeometry>
        </mxCell>
        <mxCell id="pG1akfXQ8sJfI-SVSOyK-1" value="" style="endArrow=classic;html=1;rounded=0;dashed=1;exitX=0.5;exitY=1;exitDx=0;exitDy=0;" parent="1" source="hqro3P3JsnMgNJcTQGFR-1" edge="1">
          <mxGeometry width="50" height="50" relative="1" as="geometry">
            <mxPoint x="330" y="200" as="sourcePoint" />
            <mxPoint x="330" y="240" as="targetPoint" />
          </mxGeometry>
        </mxCell>
        <mxCell id="pG1akfXQ8sJfI-SVSOyK-2" value="NZVC" style="edgeLabel;html=1;align=center;verticalAlign=middle;resizable=0;points=[];" parent="pG1akfXQ8sJfI-SVSOyK-1" vertex="1" connectable="0">
          <mxGeometry x="-0.0555" relative="1" as="geometry">
            <mxPoint y="1" as="offset" />
          </mxGeometry>
        </mxCell>
        <mxCell id="pG1akfXQ8sJfI-SVSOyK-3" value="N" style="rounded=0;whiteSpace=wrap;html=1;" parent="1" vertex="1">
          <mxGeometry x="290" y="240" width="20" height="20" as="geometry" />
        </mxCell>
        <mxCell id="pG1akfXQ8sJfI-SVSOyK-4" value="Z" style="rounded=0;whiteSpace=wrap;html=1;" parent="1" vertex="1">
          <mxGeometry x="310" y="240" width="20" height="20" as="geometry" />
        </mxCell>
        <mxCell id="pG1akfXQ8sJfI-SVSOyK-5" value="V" style="rounded=0;whiteSpace=wrap;html=1;" parent="1" vertex="1">
          <mxGeometry x="330" y="240" width="20" height="20" as="geometry" />
        </mxCell>
        <mxCell id="pG1akfXQ8sJfI-SVSOyK-6" value="C" style="rounded=0;whiteSpace=wrap;html=1;" parent="1" vertex="1">
          <mxGeometry x="350" y="240" width="20" height="20" as="geometry" />
        </mxCell>
        <mxCell id="orpr7wIEOJoV2KB0DI3t-2" value="" style="endArrow=classic;html=1;rounded=0;dashed=1;" parent="1" edge="1">
          <mxGeometry width="50" height="50" relative="1" as="geometry">
            <mxPoint x="860" y="240" as="sourcePoint" />
            <mxPoint x="800" y="239" as="targetPoint" />
          </mxGeometry>
        </mxCell>
        <mxCell id="orpr7wIEOJoV2KB0DI3t-3" value="read_instr" style="edgeLabel;html=1;align=center;verticalAlign=middle;resizable=0;points=[];" parent="orpr7wIEOJoV2KB0DI3t-2" vertex="1" connectable="0">
          <mxGeometry x="-0.0555" relative="1" as="geometry">
            <mxPoint y="-10" as="offset" />
          </mxGeometry>
        </mxCell>
        <mxCell id="e9nB6p_WT3sDQEHfiV55-16" style="edgeStyle=orthogonalEdgeStyle;rounded=0;orthogonalLoop=1;jettySize=auto;html=1;exitX=0.5;exitY=0;exitDx=0;exitDy=0;entryX=0.25;entryY=1;entryDx=0;entryDy=0;" parent="1" source="e9nB6p_WT3sDQEHfiV55-2" target="hqro3P3JsnMgNJcTQGFR-1" edge="1">
          <mxGeometry relative="1" as="geometry">
            <Array as="points">
              <mxPoint x="260" y="150" />
              <mxPoint x="275" y="150" />
            </Array>
          </mxGeometry>
        </mxCell>
        <mxCell id="e9nB6p_WT3sDQEHfiV55-2" value="MUX" style="rounded=0;whiteSpace=wrap;html=1;" parent="1" vertex="1">
          <mxGeometry x="230" y="160" width="60" height="30" as="geometry" />
        </mxCell>
        <mxCell id="e9nB6p_WT3sDQEHfiV55-54" style="edgeStyle=orthogonalEdgeStyle;rounded=0;orthogonalLoop=1;jettySize=auto;html=1;exitX=0.5;exitY=1;exitDx=0;exitDy=0;entryX=0.25;entryY=1;entryDx=0;entryDy=0;" parent="1" source="e9nB6p_WT3sDQEHfiV55-20" target="e9nB6p_WT3sDQEHfiV55-36" edge="1">
          <mxGeometry relative="1" as="geometry">
            <Array as="points">
              <mxPoint x="130" y="495" />
              <mxPoint x="246" y="495" />
            </Array>
          </mxGeometry>
        </mxCell>
        <mxCell id="e9nB6p_WT3sDQEHfiV55-20" value="JPC" style="rounded=0;whiteSpace=wrap;html=1;" parent="1" vertex="1">
          <mxGeometry x="115" y="250" width="30" height="30" as="geometry" />
        </mxCell>
        <mxCell id="e9nB6p_WT3sDQEHfiV55-25" style="edgeStyle=orthogonalEdgeStyle;rounded=0;orthogonalLoop=1;jettySize=auto;html=1;exitX=0.5;exitY=1;exitDx=0;exitDy=0;" parent="1" source="e9nB6p_WT3sDQEHfiV55-22" target="e9nB6p_WT3sDQEHfiV55-20" edge="1">
          <mxGeometry relative="1" as="geometry" />
        </mxCell>
        <mxCell id="e9nB6p_WT3sDQEHfiV55-22" value="MUX" style="rounded=0;whiteSpace=wrap;html=1;" parent="1" vertex="1">
          <mxGeometry x="110" y="120" width="40" height="60" as="geometry" />
        </mxCell>
        <mxCell id="e9nB6p_WT3sDQEHfiV55-24" style="edgeStyle=orthogonalEdgeStyle;rounded=0;orthogonalLoop=1;jettySize=auto;html=1;exitX=0.25;exitY=0;exitDx=0;exitDy=0;entryX=1;entryY=0.75;entryDx=0;entryDy=0;jumpStyle=arc;" parent="1" source="hqro3P3JsnMgNJcTQGFR-4" target="e9nB6p_WT3sDQEHfiV55-22" edge="1">
          <mxGeometry relative="1" as="geometry">
            <Array as="points">
              <mxPoint x="275" y="210" />
              <mxPoint x="170" y="210" />
              <mxPoint x="170" y="165" />
            </Array>
          </mxGeometry>
        </mxCell>
        <mxCell id="e9nB6p_WT3sDQEHfiV55-45" style="edgeStyle=orthogonalEdgeStyle;rounded=0;orthogonalLoop=1;jettySize=auto;html=1;exitX=0.5;exitY=0;exitDx=0;exitDy=0;entryX=0.5;entryY=1;entryDx=0;entryDy=0;" parent="1" source="e9nB6p_WT3sDQEHfiV55-36" target="hqro3P3JsnMgNJcTQGFR-3" edge="1">
          <mxGeometry relative="1" as="geometry" />
        </mxCell>
        <mxCell id="e9nB6p_WT3sDQEHfiV55-36" value="MUX" style="rounded=0;whiteSpace=wrap;html=1;" parent="1" vertex="1">
          <mxGeometry x="220" y="435" width="102.5" height="40" as="geometry" />
        </mxCell>
        <mxCell id="e9nB6p_WT3sDQEHfiV55-46" value="" style="endArrow=classic;html=1;rounded=0;dashed=1;" parent="1" edge="1">
          <mxGeometry width="50" height="50" relative="1" as="geometry">
            <mxPoint x="55" y="265" as="sourcePoint" />
            <mxPoint x="115" y="264.5" as="targetPoint" />
          </mxGeometry>
        </mxCell>
        <mxCell id="e9nB6p_WT3sDQEHfiV55-47" value="latch_jpc" style="edgeLabel;html=1;align=center;verticalAlign=middle;resizable=0;points=[];" parent="e9nB6p_WT3sDQEHfiV55-46" vertex="1" connectable="0">
          <mxGeometry x="-0.0555" y="-1" relative="1" as="geometry">
            <mxPoint x="-3" y="-13" as="offset" />
          </mxGeometry>
        </mxCell>
        <mxCell id="e9nB6p_WT3sDQEHfiV55-50" value="" style="endArrow=classic;html=1;rounded=0;dashed=1;" parent="1" edge="1">
          <mxGeometry width="50" height="50" relative="1" as="geometry">
            <mxPoint x="129.5" y="80" as="sourcePoint" />
            <mxPoint x="129.5" y="120" as="targetPoint" />
          </mxGeometry>
        </mxCell>
        <mxCell id="e9nB6p_WT3sDQEHfiV55-51" value="sel_jpc" style="edgeLabel;html=1;align=center;verticalAlign=middle;resizable=0;points=[];" parent="e9nB6p_WT3sDQEHfiV55-50" vertex="1" connectable="0">
          <mxGeometry x="-0.0555" y="-1" relative="1" as="geometry">
            <mxPoint x="-23" y="-5" as="offset" />
          </mxGeometry>
        </mxCell>
        <mxCell id="e9nB6p_WT3sDQEHfiV55-52" value="" style="endArrow=classic;html=1;rounded=0;dashed=1;" parent="1" edge="1">
          <mxGeometry width="50" height="50" relative="1" as="geometry">
            <mxPoint x="180" y="180" as="sourcePoint" />
            <mxPoint x="230" y="180" as="targetPoint" />
          </mxGeometry>
        </mxCell>
        <mxCell id="e9nB6p_WT3sDQEHfiV55-53" value="sel_dp" style="edgeLabel;html=1;align=center;verticalAlign=middle;resizable=0;points=[];" parent="e9nB6p_WT3sDQEHfiV55-52" vertex="1" connectable="0">
          <mxGeometry x="-0.0555" y="-1" relative="1" as="geometry">
            <mxPoint x="-4" y="-11" as="offset" />
          </mxGeometry>
        </mxCell>
        <mxCell id="e9nB6p_WT3sDQEHfiV55-60" style="edgeStyle=orthogonalEdgeStyle;rounded=0;orthogonalLoop=1;jettySize=auto;html=1;exitX=0.5;exitY=1;exitDx=0;exitDy=0;entryX=0.5;entryY=1;entryDx=0;entryDy=0;jumpStyle=arc;" parent="1" source="e9nB6p_WT3sDQEHfiV55-58" target="e9nB6p_WT3sDQEHfiV55-36" edge="1">
          <mxGeometry relative="1" as="geometry">
            <Array as="points">
              <mxPoint x="670" y="130" />
              <mxPoint x="670" y="170" />
              <mxPoint x="510" y="170" />
              <mxPoint x="510" y="510" />
              <mxPoint x="271" y="510" />
            </Array>
          </mxGeometry>
        </mxCell>
        <mxCell id="e9nB6p_WT3sDQEHfiV55-58" value="IPC" style="rounded=0;whiteSpace=wrap;html=1;" parent="1" vertex="1">
          <mxGeometry x="540" y="100" width="30" height="30" as="geometry" />
        </mxCell>
        <mxCell id="e9nB6p_WT3sDQEHfiV55-62" value="" style="endArrow=classic;html=1;rounded=0;dashed=1;" parent="1" edge="1">
          <mxGeometry width="50" height="50" relative="1" as="geometry">
            <mxPoint x="554.5" y="160" as="sourcePoint" />
            <mxPoint x="554.5" y="130" as="targetPoint" />
          </mxGeometry>
        </mxCell>
        <mxCell id="e9nB6p_WT3sDQEHfiV55-63" value="latch_ipc" style="edgeLabel;html=1;align=center;verticalAlign=middle;resizable=0;points=[];" parent="e9nB6p_WT3sDQEHfiV55-62" vertex="1" connectable="0">
          <mxGeometry x="-0.0555" y="-1" relative="1" as="geometry">
            <mxPoint x="-27" y="2" as="offset" />
          </mxGeometry>
        </mxCell>
        <mxCell id="ijN6u9asBKh3APsqhych-1" value="" style="endArrow=classic;html=1;rounded=0;dashed=1;" edge="1" parent="1">
          <mxGeometry width="50" height="50" relative="1" as="geometry">
            <mxPoint x="720" y="160" as="sourcePoint" />
            <mxPoint x="720" y="130" as="targetPoint" />
          </mxGeometry>
        </mxCell>
        <mxCell id="ijN6u9asBKh3APsqhych-2" value="sel_out" style="edgeLabel;html=1;align=center;verticalAlign=middle;resizable=0;points=[];" vertex="1" connectable="0" parent="ijN6u9asBKh3APsqhych-1">
          <mxGeometry x="-0.0555" y="-1" relative="1" as="geometry">
            <mxPoint x="-24" y="1" as="offset" />
          </mxGeometry>
        </mxCell>
        <mxCell id="ijN6u9asBKh3APsqhych-3" value="" style="endArrow=classic;html=1;rounded=0;dashed=1;" edge="1" parent="1">
          <mxGeometry width="50" height="50" relative="1" as="geometry">
            <mxPoint x="670" y="-10" as="sourcePoint" />
            <mxPoint x="670" y="30" as="targetPoint" />
          </mxGeometry>
        </mxCell>
        <mxCell id="ijN6u9asBKh3APsqhych-4" value="check_int" style="edgeLabel;html=1;align=center;verticalAlign=middle;resizable=0;points=[];" vertex="1" connectable="0" parent="ijN6u9asBKh3APsqhych-3">
          <mxGeometry x="-0.0555" relative="1" as="geometry">
            <mxPoint x="26" y="-3" as="offset" />
          </mxGeometry>
        </mxCell>
        <mxCell id="ijN6u9asBKh3APsqhych-7" value="" style="endArrow=classic;html=1;rounded=0;dashed=1;" edge="1" parent="1">
          <mxGeometry width="50" height="50" relative="1" as="geometry">
            <mxPoint x="440" y="47" as="sourcePoint" />
            <mxPoint x="540" y="47" as="targetPoint" />
          </mxGeometry>
        </mxCell>
        <mxCell id="ijN6u9asBKh3APsqhych-9" value="add_irq" style="edgeLabel;html=1;align=center;verticalAlign=middle;resizable=0;points=[];" vertex="1" connectable="0" parent="ijN6u9asBKh3APsqhych-7">
          <mxGeometry x="-0.1524" y="1" relative="1" as="geometry">
            <mxPoint x="7" y="-11" as="offset" />
          </mxGeometry>
        </mxCell>
        <mxCell id="ijN6u9asBKh3APsqhych-10" value="" style="endArrow=classic;html=1;rounded=0;dashed=1;" edge="1" parent="1">
          <mxGeometry width="50" height="50" relative="1" as="geometry">
            <mxPoint x="569" y="-10" as="sourcePoint" />
            <mxPoint x="569.31" y="30" as="targetPoint" />
          </mxGeometry>
        </mxCell>
        <mxCell id="ijN6u9asBKh3APsqhych-11" value="remove_irq" style="edgeLabel;html=1;align=center;verticalAlign=middle;resizable=0;points=[];" vertex="1" connectable="0" parent="ijN6u9asBKh3APsqhych-10">
          <mxGeometry x="-0.0555" relative="1" as="geometry">
            <mxPoint x="-33" y="-5" as="offset" />
          </mxGeometry>
        </mxCell>
        <mxCell id="ijN6u9asBKh3APsqhych-14" value="" style="endArrow=classic;html=1;rounded=0;dashed=1;" edge="1" parent="1">
          <mxGeometry width="50" height="50" relative="1" as="geometry">
            <mxPoint x="615" y="-10" as="sourcePoint" />
            <mxPoint x="614.66" y="30" as="targetPoint" />
          </mxGeometry>
        </mxCell>
        <mxCell id="ijN6u9asBKh3APsqhych-15" value="set_ie" style="edgeLabel;html=1;align=center;verticalAlign=middle;resizable=0;points=[];" vertex="1" connectable="0" parent="ijN6u9asBKh3APsqhych-14">
          <mxGeometry x="-0.0555" relative="1" as="geometry">
            <mxPoint x="20" y="-3" as="offset" />
          </mxGeometry>
        </mxCell>
        <mxCell id="ijN6u9asBKh3APsqhych-16" value="" style="endArrow=classic;html=1;rounded=0;dashed=1;" edge="1" parent="1">
          <mxGeometry width="50" height="50" relative="1" as="geometry">
            <mxPoint x="850" y="70" as="sourcePoint" />
            <mxPoint x="790" y="70" as="targetPoint" />
          </mxGeometry>
        </mxCell>
        <mxCell id="ijN6u9asBKh3APsqhych-17" value="latch_iv" style="edgeLabel;html=1;align=center;verticalAlign=middle;resizable=0;points=[];" vertex="1" connectable="0" parent="ijN6u9asBKh3APsqhych-16">
          <mxGeometry x="-0.0555" y="-1" relative="1" as="geometry">
            <mxPoint x="1" y="-8" as="offset" />
          </mxGeometry>
        </mxCell>
        <mxCell id="ijN6u9asBKh3APsqhych-18" value="IV" style="rounded=0;whiteSpace=wrap;html=1;" vertex="1" parent="1">
          <mxGeometry x="760" y="60" width="30" height="40" as="geometry" />
        </mxCell>
        <mxCell id="ijN6u9asBKh3APsqhych-21" value="" style="endArrow=classic;html=1;rounded=0;dashed=1;" edge="1" parent="1">
          <mxGeometry width="50" height="50" relative="1" as="geometry">
            <mxPoint x="860" y="281" as="sourcePoint" />
            <mxPoint x="800" y="280" as="targetPoint" />
          </mxGeometry>
        </mxCell>
        <mxCell id="ijN6u9asBKh3APsqhych-22" value="read_iv" style="edgeLabel;html=1;align=center;verticalAlign=middle;resizable=0;points=[];" vertex="1" connectable="0" parent="ijN6u9asBKh3APsqhych-21">
          <mxGeometry x="-0.0555" relative="1" as="geometry">
            <mxPoint y="-10" as="offset" />
          </mxGeometry>
        </mxCell>
        <mxCell id="ijN6u9asBKh3APsqhych-23" value="" style="endArrow=classic;html=1;rounded=0;dashed=1;" edge="1" parent="1">
          <mxGeometry width="50" height="50" relative="1" as="geometry">
            <mxPoint x="410" y="380" as="sourcePoint" />
            <mxPoint x="410" y="340" as="targetPoint" />
          </mxGeometry>
        </mxCell>
        <mxCell id="ijN6u9asBKh3APsqhych-24" value="decode_instr" style="edgeLabel;html=1;align=center;verticalAlign=middle;resizable=0;points=[];" vertex="1" connectable="0" parent="ijN6u9asBKh3APsqhych-23">
          <mxGeometry x="-0.0555" y="-1" relative="1" as="geometry">
            <mxPoint x="-39" y="2" as="offset" />
          </mxGeometry>
        </mxCell>
        <mxCell id="ijN6u9asBKh3APsqhych-25" value="" style="endArrow=classic;html=1;rounded=0;dashed=1;" edge="1" parent="1">
          <mxGeometry width="50" height="50" relative="1" as="geometry">
            <mxPoint x="180" y="300" as="sourcePoint" />
            <mxPoint x="220" y="300" as="targetPoint" />
          </mxGeometry>
        </mxCell>
        <mxCell id="ijN6u9asBKh3APsqhych-26" value="sel_out" style="edgeLabel;html=1;align=center;verticalAlign=middle;resizable=0;points=[];" vertex="1" connectable="0" parent="ijN6u9asBKh3APsqhych-25">
          <mxGeometry x="-0.0555" y="-1" relative="1" as="geometry">
            <mxPoint x="-2" y="-14" as="offset" />
          </mxGeometry>
        </mxCell>
      </root>
    </mxGraphModel>
  </diagram>
</mxfile>
